<svg height="140" viewBox="0 0 740 1009" fill="none" xmlns="http://www.w3.org/2000/svg">
<path d="M50.2629 907.363C55.0569 904.813 59.4429 902.977 63.4209 901.855C67.5009 900.733 71.8359 900.172 76.4259 900.172C79.6899 900.172 82.7499 900.631 85.6059 901.549C88.5639 902.467 91.1139 903.946 93.2559 905.986C95.4999 908.026 97.2339 910.729 98.4579 914.095C99.7839 917.359 100.447 921.388 100.447 926.182V973H94.9389L93.2559 963.514H92.9499C89.9919 967.084 86.5239 969.787 82.5459 971.623C78.5679 973.357 74.1309 974.224 69.2349 974.224C65.8689 974.224 62.7579 973.765 59.9019 972.847C57.0459 971.827 54.5469 970.399 52.4049 968.563C50.3649 966.727 48.7329 964.534 47.5089 961.984C46.3869 959.332 45.8259 956.425 45.8259 953.263C45.8259 949.489 46.5909 946.174 48.1209 943.318C49.6509 940.462 51.7929 938.116 54.5469 936.28C57.3009 934.342 60.5649 932.914 64.3389 931.996C68.2149 931.078 72.4989 930.619 77.1909 930.619H92.4909V925.876C92.4909 918.94 90.9609 913.993 87.9009 911.035C84.8409 908.077 80.8629 906.598 75.9669 906.598C73.0089 906.598 69.5919 907.057 65.7159 907.975C61.8399 908.893 57.7089 910.576 53.3229 913.024L50.2629 907.363ZM92.4909 936.892L79.7919 937.045C75.2019 937.147 71.2749 937.657 68.0109 938.575C64.7469 939.391 62.0439 940.513 59.9019 941.941C57.8619 943.267 56.3829 944.899 55.4649 946.837C54.5469 948.673 54.0879 950.662 54.0879 952.804C54.0879 955.456 54.5469 957.751 55.4649 959.689C56.3829 961.525 57.6069 963.055 59.1369 964.279C60.6669 965.503 62.4519 966.421 64.4919 967.033C66.6339 967.543 68.8779 967.798 71.2239 967.798C73.0599 967.798 74.9469 967.594 76.8849 967.186C78.8229 966.676 80.7099 965.962 82.5459 965.044C84.4839 964.024 86.3199 962.8 88.0539 961.372C89.7879 959.842 91.2669 958.006 92.4909 955.864V936.892ZM122.782 973V864.37H130.738V973H122.782ZM150.921 924.958C150.921 920.98 151.584 917.461 152.91 914.401C154.338 911.239 156.327 908.638 158.877 906.598C161.427 904.456 164.436 902.875 167.904 901.855C171.474 900.733 175.35 900.172 179.532 900.172C181.368 900.172 182.949 900.274 184.275 900.478C185.703 900.682 187.08 900.886 188.406 901.09H218.241V907.21H209.367L196.056 906.292C199.218 908.026 201.768 910.576 203.706 913.942C205.644 917.308 206.613 920.929 206.613 924.805C206.613 928.783 205.899 932.353 204.471 935.515C203.145 938.575 201.207 941.176 198.657 943.318C196.209 945.46 193.302 947.092 189.936 948.214C186.57 949.234 182.898 949.744 178.92 949.744C177.492 949.744 176.064 949.693 174.636 949.591C173.31 949.489 171.882 949.285 170.352 948.979C167.904 949.897 165.915 951.325 164.385 953.263C162.855 955.099 162.09 957.037 162.09 959.077C162.09 961.729 163.059 963.667 164.997 964.891C167.037 966.013 169.587 966.574 172.647 966.574H191.313C199.269 966.574 205.287 968.257 209.367 971.623C213.447 974.989 215.487 979.324 215.487 984.628C215.487 988.198 214.671 991.411 213.039 994.267C211.407 997.225 209.061 999.724 206.001 1001.76C202.941 1003.8 199.218 1005.39 194.832 1006.51C190.446 1007.63 185.499 1008.19 179.991 1008.19C169.995 1008.19 162.039 1006.2 156.123 1002.22C150.207 998.347 147.249 992.992 147.249 986.158C147.249 982.384 148.32 979.171 150.462 976.519C152.706 973.969 155.868 971.98 159.948 970.552C158.418 969.736 157.041 968.41 155.817 966.574C154.695 964.636 154.134 962.443 154.134 959.995C154.134 956.629 155.103 953.875 157.041 951.733C158.979 949.489 161.223 947.755 163.773 946.531C162.141 945.817 160.56 944.797 159.03 943.471C157.5 942.145 156.123 940.564 154.899 938.728C153.675 936.892 152.706 934.852 151.992 932.608C151.278 930.262 150.921 927.712 150.921 924.958ZM165.762 973C162.804 974.02 160.356 975.601 158.418 977.743C156.582 979.885 155.664 982.384 155.664 985.24C155.664 990.748 157.908 994.879 162.396 997.633C166.986 1000.39 172.902 1001.76 180.144 1001.76C184.938 1001.76 189.018 1001.25 192.384 1000.23C195.852 999.316 198.657 998.041 200.799 996.409C203.043 994.879 204.675 993.094 205.695 991.054C206.715 989.116 207.225 987.127 207.225 985.087C207.225 982.639 206.715 980.599 205.695 978.967C204.777 977.437 203.4 976.213 201.564 975.295C199.83 974.479 197.739 973.867 195.291 973.459C192.945 973.153 190.344 973 187.488 973H165.762ZM198.351 925.264C198.351 919.246 196.617 914.656 193.149 911.494C189.681 908.23 185.142 906.598 179.532 906.598C176.676 906.598 174.024 907.006 171.576 907.822C169.128 908.536 166.986 909.658 165.15 911.188C163.314 912.616 161.835 914.452 160.713 916.696C159.693 918.94 159.183 921.592 159.183 924.652C159.183 930.976 161.07 935.668 164.844 938.728C168.618 941.788 173.31 943.318 178.92 943.318C184.53 943.318 189.171 941.839 192.843 938.881C196.515 935.923 198.351 931.384 198.351 925.264ZM289.401 936.28C289.401 942.298 288.585 947.704 286.953 952.498C285.321 957.19 283.026 961.168 280.068 964.432C277.212 967.594 273.846 970.042 269.97 971.776C266.094 973.408 261.861 974.224 257.271 974.224C252.783 974.224 248.55 973.459 244.572 971.929C240.696 970.297 237.33 967.951 234.474 964.891C231.618 961.831 229.374 958.057 227.742 953.569C226.11 948.979 225.294 943.726 225.294 937.81C225.294 931.792 226.11 926.437 227.742 921.745C229.476 917.053 231.822 913.126 234.78 909.964C237.738 906.7 241.206 904.252 245.184 902.62C249.162 900.988 253.395 900.172 257.883 900.172C262.371 900.172 266.553 900.937 270.429 902.467C274.305 903.997 277.62 906.292 280.374 909.352C283.23 912.412 285.423 916.186 286.953 920.674C288.585 925.162 289.401 930.364 289.401 936.28ZM281.139 937.045C281.139 931.741 280.476 927.202 279.15 923.428C277.824 919.552 276.039 916.39 273.795 913.942C271.653 911.392 269.154 909.556 266.298 908.434C263.442 907.21 260.484 906.598 257.424 906.598C254.364 906.598 251.406 907.21 248.55 908.434C245.694 909.556 243.144 911.392 240.9 913.942C238.656 916.39 236.871 919.552 235.545 923.428C234.219 927.202 233.556 931.741 233.556 937.045C233.556 942.655 234.219 947.398 235.545 951.274C236.973 955.15 238.809 958.312 241.053 960.76C243.297 963.208 245.847 964.993 248.703 966.115C251.661 967.237 254.67 967.798 257.73 967.798C260.79 967.798 263.697 967.288 266.451 966.268C269.307 965.146 271.806 963.361 273.948 960.913C276.192 958.465 277.926 955.303 279.15 951.427C280.476 947.449 281.139 942.655 281.139 937.045ZM307.138 973V901.09H312.34L314.176 915.472C315.91 910.882 318.868 907.21 323.05 904.456C327.232 901.6 331.924 900.172 337.126 900.172C339.574 900.172 341.716 900.376 343.552 900.784C345.388 901.192 346.816 901.651 347.836 902.161L346.306 909.199C345.082 908.689 343.705 908.23 342.175 907.822C340.645 907.414 338.86 907.21 336.82 907.21C333.862 907.21 331.057 907.72 328.405 908.74C325.855 909.76 323.56 911.341 321.52 913.483C319.582 915.625 318.001 918.328 316.777 921.592C315.655 924.754 315.094 928.528 315.094 932.914V973H307.138ZM361.397 973V901.09H369.353V973H361.397ZM365.528 882.577C363.896 882.577 362.468 882.067 361.244 881.047C360.122 879.925 359.561 878.395 359.561 876.457C359.561 874.417 360.122 872.836 361.244 871.714C362.366 870.592 363.743 870.031 365.375 870.031C366.905 870.031 368.231 870.592 369.353 871.714C370.577 872.734 371.189 874.315 371.189 876.457C371.189 878.497 370.628 880.027 369.506 881.047C368.384 882.067 367.058 882.577 365.528 882.577ZM429.775 907.21H405.601V954.334C405.601 959.128 406.672 962.392 408.814 964.126C410.956 965.758 413.914 966.574 417.688 966.574C420.646 966.574 423.4 966.319 425.95 965.809C428.5 965.197 430.642 964.585 432.376 963.973L433.6 969.94C431.56 970.756 429.061 971.47 426.103 972.082C423.145 972.694 419.881 973 416.311 973C410.191 973 405.55 971.572 402.388 968.716C399.226 965.758 397.645 961.321 397.645 955.405V907.21H384.64V901.09H397.645V878.14H405.601V901.09H429.775V907.21ZM456.611 973H448.655V864.37H456.611V910.729C459.977 907.669 463.7 905.17 467.78 903.232C471.86 901.192 476.348 900.172 481.244 900.172C485.222 900.172 488.69 900.784 491.648 902.008C494.606 903.13 497.003 904.762 498.839 906.904C500.777 908.944 502.205 911.392 503.123 914.248C504.143 917.002 504.653 920.062 504.653 923.428V973H496.697V925.876C496.697 918.838 495.116 913.891 491.954 911.035C488.792 908.077 484.61 906.598 479.408 906.598C475.736 906.598 471.911 907.618 467.933 909.658C463.955 911.596 460.181 914.248 456.611 917.614V973ZM535.935 973H527.979V901.09H533.64L534.864 911.035C538.23 907.669 541.851 905.017 545.727 903.079C549.603 901.039 554.244 900.019 559.65 900.019C564.75 900.019 568.932 901.09 572.196 903.232C575.46 905.272 577.908 908.128 579.54 911.8C583.11 908.026 587.037 905.119 591.321 903.079C595.605 901.039 600.348 900.019 605.55 900.019C612.894 900.019 618.402 902.11 622.074 906.292C625.848 910.372 627.735 916.084 627.735 923.428V973H619.779V925.876C619.779 919.756 618.453 915.013 615.801 911.647C613.251 908.281 608.61 906.598 601.878 906.598C598.41 906.598 594.789 907.567 591.015 909.505C587.343 911.443 584.232 914.044 581.682 917.308C581.784 918.226 581.835 919.246 581.835 920.368C581.835 921.49 581.835 922.51 581.835 923.428V973H573.879V925.876C573.879 919.756 572.655 915.013 570.207 911.647C567.759 908.281 563.22 906.598 556.59 906.598C552.816 906.598 549.093 907.618 545.421 909.658C541.851 911.596 538.689 914.299 535.935 917.767V973ZM687.82 910.117C682.72 907.771 677.161 906.598 671.143 906.598C665.635 906.598 661.504 907.771 658.75 910.117C655.996 912.361 654.619 915.268 654.619 918.838C654.619 922.408 655.792 925.162 658.138 927.1C660.484 928.936 664.615 930.721 670.531 932.455L675.121 933.832C680.935 935.566 685.372 938.116 688.432 941.482C691.492 944.848 693.022 948.979 693.022 953.875C693.022 956.731 692.461 959.434 691.339 961.984C690.217 964.432 688.585 966.574 686.443 968.41C684.301 970.246 681.598 971.674 678.334 972.694C675.172 973.714 671.5 974.224 667.318 974.224C662.728 974.224 658.699 973.816 655.231 973C651.763 972.286 648.703 971.317 646.051 970.093L648.193 963.82C650.845 965.146 653.599 966.166 656.455 966.88C659.311 967.492 662.677 967.798 666.553 967.798C672.367 967.798 676.855 966.676 680.017 964.432C683.179 962.188 684.76 958.975 684.76 954.793C684.76 951.529 683.587 948.724 681.241 946.378C678.997 943.93 674.968 941.788 669.154 939.952L664.258 938.422C652.324 934.648 646.357 928.375 646.357 919.603C646.357 916.747 646.918 914.146 648.04 911.8C649.264 909.352 650.896 907.312 652.936 905.68C655.078 903.946 657.577 902.62 660.433 901.702C663.391 900.682 666.655 900.172 670.225 900.172C673.489 900.172 676.855 900.427 680.323 900.937C683.791 901.447 686.953 902.416 689.809 903.844L687.82 910.117Z" fill="#777777"/>
<path d="M0 370C0 70 173 0 370 0C567 0 740 70 740 370C740 670 567 740 370 740C173 740 0 670 0 370Z" fill="#FAFA00"/>
<path d="M446.379 493.768V303.387C446.379 288.803 443.417 276.157 437.492 265.447C431.796 254.51 423.137 246.079 411.516 240.154C399.895 234.23 385.539 231.268 368.449 231.268C352.499 231.268 338.485 234.002 326.408 239.471C314.559 244.939 305.217 252.117 298.381 261.004C291.773 269.891 288.469 279.461 288.469 289.715H225.236C225.236 276.499 228.654 263.396 235.49 250.408C242.326 237.42 252.124 225.685 264.885 215.203C277.873 204.493 293.368 196.062 311.369 189.91C329.598 183.53 349.878 180.34 372.209 180.34C399.097 180.34 422.795 184.897 443.303 194.012C464.038 203.126 480.217 216.912 491.838 235.369C503.687 253.598 509.611 276.499 509.611 304.07V476.336C509.611 488.641 510.637 501.743 512.688 515.643C514.966 529.542 518.27 541.505 522.6 551.531L525 557H456.633C453.443 549.708 450.936 540.024 449.113 527.947C447.29 515.643 446.379 504.249 446.379 493.768ZM457.316 332.781L458 377.215H394.084C376.083 377.215 360.018 378.696 345.891 381.658C331.763 384.393 319.914 388.608 310.344 394.305C300.773 400.001 293.482 407.179 288.469 415.838C283.456 424.269 280.949 434.181 280.949 445.574C280.949 457.195 283.57 467.791 288.811 477.361C294.051 486.932 301.913 494.565 312.395 500.262C323.104 505.73 336.206 508.465 351.701 508.465C371.07 508.465 388.16 504.363 402.971 496.16C417.782 487.957 429.517 477.931 438.176 466.082C447.062 454.233 451.848 442.726 452.531 431.561L479.533 461.98C477.938 471.551 473.609 482.146 466.545 493.768C459.481 505.389 450.025 516.554 438.176 527.264C426.555 537.745 412.655 546.518 396.477 553.582C380.526 560.418 362.525 563.836 342.473 563.836C317.408 563.836 295.419 558.937 276.506 549.139C257.821 539.34 243.238 526.238 232.756 509.832C222.502 493.198 217.375 474.627 217.375 454.119C217.375 434.295 221.249 416.863 228.996 401.824C236.743 386.557 247.909 373.911 262.492 363.885C277.076 353.631 294.621 345.883 315.129 340.643C335.637 335.402 358.537 332.781 383.83 332.781H457.316Z" fill="white"/>
</svg>
